# xmcd
#
# Track frame offsets:
#	150
#	9527
#	21377
#	34967
#	50767
#	64307
#	87170
#	106432
#	117962
#	130227
#	139580
#	161562
#	182777
#	197300
#	205750
#	217757
#	226060
#	239962
#	252157
#	262327
#	270247
#	282395
#	296717
#	307537
#	319197
#	328660
#
# Disc length: 4549 seconds
#
# Revision: 0
# Processed by: cddbd v1.5.1PL0 Copyright (c) Steve Scherf et al.
# Submitted via: MusicWizard 7.1.1b
#
DISCID=8211c31a
DTITLE=Graham Bond Organisation - There´s A Bond Between Us  -  The Sound Of 65
DYEAR=1900
DGENRE=Blues
TTITLE0=Who´s Afraid Of Virginia Woolf ?
TTITLE1=Hear Me Calling Your Name
TTITLE2=The Night Time Is The Right Time
TTITLE3=Walkin´ In The Park
TTITLE4=Last Night
TTITLE5=Baby Can It Be True ?
TTITLE6=What´d I Say ?
TTITLE7=Dick´s Instrumental
TTITLE8=Don´t Let Go
TTITLE9=Keep A Drivin
TTITLE10=Have You Ever Loved A Woman ?
TTITLE11=Camels And Elephants
TTITLE12=Hoochie Coochie Man
TTITLE13=Baby Make Love To Me
TTITLE14=Neighbour Neighbour
TTITLE15=Early In The Morning
TTITLE16=Spanish Blues
TTITLE17=Oh Baby
TTITLE18=Little Girl
TTITLE19=I Want You
TTITLE20=Wade In The Water
TTITLE21=Got My Mojo Working
TTITLE22=Train Time
TTITLE23=Baby Be Good To Me
TTITLE24=Half A Man
TTITLE25=Tammy
EXTD=
EXTT0=
EXTT1=
EXTT2=
EXTT3=
EXTT4=
EXTT5=
EXTT6=
EXTT7=
EXTT8=
EXTT9=
EXTT10=
EXTT11=
EXTT12=
EXTT13=
EXTT14=
EXTT15=
EXTT16=
EXTT17=
EXTT18=
EXTT19=
EXTT20=
EXTT21=
EXTT22=
EXTT23=
EXTT24=
EXTT25=
PLAYORDER=
